<?xml version="1.0" standalone="no"?>
<!DOCTYPE svg PUBLIC "-//W3C//DTD SVG 20010904//EN"
 "http://www.w3.org/TR/2001/REC-SVG-20010904/DTD/svg10.dtd">
<svg version="1.0" xmlns="http://www.w3.org/2000/svg"
 width="500.000000pt" height="500.000000pt" viewBox="0 0 500.000000 500.000000"
 preserveAspectRatio="xMidYMid meet">
<metadata>
Created by potrace 1.11, written by Peter Selinger 2001-2013
</metadata>
<g transform="translate(0.000000,500.000000) scale(0.100000,-0.100000)"
fill="#000000" stroke="none">
<path d="M4550 4284 c-169 -139 -323 -316 -415 -477 -20 -34 -74 -120 -120
-192 -47 -71 -100 -161 -118 -200 -38 -78 -159 -263 -206 -312 -16 -18 -36
-33 -44 -33 -31 0 -30 37 9 228 2 13 11 42 19 66 8 23 17 60 20 82 4 21 13 63
22 93 20 71 22 82 13 106 -4 11 -1 38 6 59 10 27 12 59 8 102 -6 53 -10 65
-28 71 -31 10 -56 9 -106 -3 -36 -9 -55 -8 -95 3 -78 24 -96 23 -154 -6 -69
-33 -148 -110 -191 -187 -19 -32 -61 -102 -95 -154 -33 -52 -85 -138 -114
-190 -50 -88 -144 -235 -173 -270 -24 -28 -80 -70 -93 -70 -34 0 -50 99 -33
205 4 28 10 66 13 85 3 19 8 49 10 65 10 61 12 151 4 180 -9 30 -83 85 -114
85 -24 0 -41 -47 -83 -230 -55 -237 -53 -229 -57 -333 -2 -51 -8 -119 -14
-152 -15 -86 -21 -126 -41 -271 -6 -44 -12 -90 -14 -101 -3 -11 -7 -44 -11
-73 -4 -29 -8 -61 -10 -70 -2 -9 -6 -41 -10 -70 -9 -70 -9 -69 -40 -185 -38
-140 -65 -247 -69 -270 -12 -62 -16 -97 -21 -160 -2 -38 -7 -81 -9 -95 -3 -14
-7 -43 -11 -64 -3 -21 -7 -48 -10 -60 -3 -12 -7 -33 -9 -47 -7 -46 -47 -180
-67 -227 -23 -53 -20 -68 18 -84 30 -12 34 -13 103 -22 27 -4 56 -16 71 -30
40 -37 62 -46 84 -34 11 6 23 16 28 22 11 17 25 75 32 131 20 180 83 367 235
690 82 174 182 399 196 438 8 22 29 65 48 96 19 31 62 112 97 181 101 203 144
270 169 270 12 0 9 -93 -5 -160 -10 -51 -14 -76 -20 -112 -2 -21 -9 -57 -14
-80 -5 -24 -12 -59 -15 -78 -9 -59 -17 -112 -21 -130 -2 -10 -7 -40 -11 -67
-3 -26 -8 -57 -11 -68 -2 -11 -5 -63 -8 -115 -5 -105 -18 -153 -68 -238 -36
-62 -127 -249 -127 -262 0 -28 184 -71 273 -63 57 5 168 45 207 75 14 11 33
33 43 51 9 17 17 27 17 22 0 -6 14 14 31 43 17 28 32 52 34 52 1 0 1 -13 -1
-30 -3 -26 -2 -29 14 -19 41 27 109 124 174 249 38 74 107 207 153 295 46 89
102 206 125 260 23 55 49 118 58 139 9 21 40 62 68 90 36 35 56 65 65 96 7 25
12 48 11 53 -1 4 6 7 16 7 12 0 33 26 62 78 65 115 148 239 164 245 28 11 33
-49 21 -240 -4 -51 -4 -93 -2 -93 3 0 19 44 36 98 29 92 51 141 51 116 0 -6
-7 -29 -16 -50 -9 -22 -18 -66 -20 -99 -5 -105 -16 -190 -24 -199 -5 -5 -6
-29 -3 -55 3 -25 -2 -93 -11 -151 -20 -133 -24 -162 -25 -177 -2 -22 -21 -14
-21 9 0 96 -58 -252 -65 -387 -6 -140 -15 -266 -20 -285 -9 -33 -19 -117 -17
-145 2 -34 33 -65 67 -65 12 0 28 -7 35 -15 16 -19 59 -19 131 1 49 14 59 21
70 48 7 17 22 42 34 56 49 57 67 99 61 143 -3 23 -6 80 -5 127 1 47 1 110 0
140 0 30 4 78 9 105 16 82 18 100 25 182 4 43 9 81 12 85 2 4 -5 13 -17 20
-27 17 -25 49 7 121 17 38 23 62 16 64 -7 3 -8 16 -2 42 5 21 10 54 13 74 2
19 9 43 14 54 14 26 17 71 8 124 -6 36 -4 54 9 79 11 21 15 44 11 62 -3 17 0
41 9 58 21 40 24 78 30 330 7 302 11 330 79 548 40 128 41 129 24 185 -9 31
-20 43 -46 54 -19 8 -54 34 -78 58 -54 55 -93 75 -158 82 -46 5 -55 2 -86 -23z
m-489 -769 c-23 -48 -50 -98 -61 -112 -11 -14 -20 -33 -20 -42 0 -18 -49 -75
-57 -67 -5 5 49 116 95 198 35 61 75 119 79 114 2 -2 -14 -43 -36 -91z m-281
-463 c0 -10 -20 -45 -44 -78 -25 -33 -68 -115 -96 -182 -46 -109 -70 -151 -70
-124 0 42 185 402 206 402 2 0 4 -8 4 -18z m-717 -1302 c-7 -28 -23 -36 -23
-11 0 10 6 22 13 24 6 3 13 6 14 6 0 1 -1 -8 -4 -19z"/>
<path d="M2575 4153 c-21 -4 -55 -15 -105 -34 -33 -13 -58 -51 -170 -264 -35
-66 -73 -138 -85 -160 -12 -22 -44 -80 -70 -130 -101 -188 -221 -403 -272
-488 -29 -48 -53 -90 -53 -92 0 -2 -13 -26 -29 -53 -15 -26 -39 -68 -53 -93
-170 -303 -194 -347 -300 -549 -25 -47 -64 -137 -88 -200 -93 -251 -185 -410
-235 -410 -50 0 -89 98 -84 210 2 40 -1 56 -14 65 -9 6 -14 15 -10 18 3 4 2 7
-3 7 -19 0 -84 -72 -84 -94 0 -12 -7 -31 -15 -42 -14 -19 -14 -18 -16 4 -1 12
-2 25 -3 30 -17 72 -27 195 -17 211 13 21 51 -19 62 -65 11 -44 12 -44 32 -27
25 23 55 93 49 115 -2 10 -13 18 -23 18 -22 0 -25 29 -7 63 19 36 17 136 -4
197 -10 29 -20 70 -23 88 -7 58 -21 59 -49 4 -14 -27 -24 -51 -22 -53 4 -4 16
-137 20 -220 3 -51 -8 -89 -24 -89 -38 0 -64 203 -37 287 22 71 29 118 27 197
-3 122 -2 134 21 183 27 58 29 161 5 272 -21 94 -40 133 -82 171 -69 60 -150
89 -294 105 -30 4 -80 13 -112 21 -77 19 -379 36 -394 22 -10 -11 10 -38 47
-64 32 -22 39 -33 39 -60 0 -39 23 -67 74 -88 39 -16 45 -32 66 -176 6 -47 14
-96 16 -110 2 -14 6 -50 9 -80 4 -30 8 -62 10 -70 4 -16 12 -151 20 -330 3
-63 7 -131 9 -150 3 -19 8 -75 11 -125 4 -49 9 -103 10 -120 3 -37 15 -151 20
-185 2 -14 6 -50 10 -81 3 -31 7 -65 9 -75 2 -11 7 -46 10 -79 4 -33 9 -67 11
-75 2 -8 6 -33 10 -55 3 -22 8 -52 10 -66 3 -14 7 -41 9 -60 19 -139 30 -182
60 -233 21 -37 40 -52 99 -81 115 -56 188 -63 255 -26 34 19 93 48 150 75 13
5 30 23 38 38 12 23 21 28 54 28 34 0 42 4 55 30 8 16 15 37 15 47 0 29 55
129 115 208 30 41 76 113 101 162 56 108 89 168 169 303 34 58 72 128 84 155
131 283 367 744 414 807 13 18 53 87 87 153 35 66 66 125 70 130 9 12 131 254
156 310 10 22 42 81 71 132 108 189 195 378 212 463 21 106 21 109 1 120 -10
6 -20 9 -22 9 -2 -1 -12 -3 -23 -6z m-1660 -2372 c-3 -6 -11 -11 -17 -11 -6 0
-6 6 2 15 14 17 26 13 15 -4z m-25 -63 c0 -32 -3 -39 -10 -28 -13 20 -13 70 0
70 6 0 10 -19 10 -42z m-376 -495 c1 -57 -17 -78 -22 -27 -2 21 -10 34 -22 37
-27 7 -31 57 -5 83 l20 22 14 -32 c8 -17 15 -55 15 -83z"/>
</g>
</svg>
