<?xml version="1.0" standalone="no"?>
<!DOCTYPE svg PUBLIC "-//W3C//DTD SVG 20010904//EN"
 "http://www.w3.org/TR/2001/REC-SVG-20010904/DTD/svg10.dtd">
<svg version="1.0" xmlns="http://www.w3.org/2000/svg"
 width="500.000000pt" height="315.000000pt" viewBox="0 0 500.000000 315.000000"
 preserveAspectRatio="xMidYMid meet">

<g transform="translate(0.000000,315.000000) scale(0.100000,-0.100000)"
fill="#000000" stroke="none">
<path d="M2555 3072 c-57 -20 -34 11 -395 -522 -117 -173 -239 -349 -270 -390
-70 -92 -377 -531 -505 -721 -52 -77 -126 -202 -164 -279 -119 -239 -208 -360
-264 -360 -43 0 -61 50 -63 175 0 55 -5 110 -9 123 -7 21 -9 21 -24 7 -9 -8
-28 -25 -43 -36 -16 -12 -28 -30 -28 -43 0 -13 -8 -30 -19 -40 -18 -16 -18
-14 -23 76 -6 112 0 168 17 168 18 0 45 -34 45 -57 0 -12 3 -28 6 -37 14 -37
84 42 84 97 0 21 -5 27 -21 27 -23 0 -24 -3 10 90 24 66 25 97 6 170 -8 30
-15 72 -15 92 0 52 -12 53 -42 5 -23 -38 -26 -55 -32 -187 -5 -106 -11 -149
-21 -160 -28 -27 -40 4 -43 114 -3 90 -1 109 21 162 33 81 45 135 50 230 4 66
11 92 38 143 39 76 45 125 30 261 -8 78 -17 114 -36 145 -45 77 -135 129 -285
165 -52 13 -117 31 -145 41 -51 18 -290 59 -345 59 -42 0 -38 -21 11 -67 34
-32 40 -42 35 -66 -7 -35 15 -71 55 -87 16 -7 34 -21 40 -32 16 -30 29 -445
19 -603 -35 -537 -14 -1345 37 -1452 20 -43 99 -101 180 -130 82 -29 115 -29
183 3 30 14 76 32 102 40 31 10 56 25 70 44 19 26 26 29 58 24 34 -6 39 -3 57
27 11 19 23 46 27 61 6 28 50 86 159 213 38 44 81 100 95 125 14 25 67 101
117 170 115 157 186 263 214 318 12 24 61 103 109 177 48 74 123 190 167 260
44 69 104 156 132 193 46 58 269 389 445 659 32 48 86 129 120 179 131 189
225 396 197 431 -15 18 -84 16 -144 -5z m-1785 -2152 c0 -5 -5 -10 -11 -10 -5
0 -7 5 -4 10 3 6 8 10 11 10 2 0 4 -4 4 -10z m-30 -55 c0 -19 -4 -35 -10 -35
-11 0 -14 53 -3 63 11 12 13 8 13 -28z m-421 -394 c12 -54 4 -124 -13 -118 -6
2 -10 15 -8 27 1 13 -6 31 -18 42 -24 22 -28 78 -5 78 8 0 15 5 15 10 0 6 4
10 9 10 5 0 14 -22 20 -49z"/>
<path d="M4523 2955 c-138 -104 -254 -219 -358 -356 -43 -57 -124 -160 -178
-228 -54 -68 -105 -138 -114 -155 -27 -54 -202 -264 -239 -287 -66 -40 -68 5
-7 176 19 55 44 127 55 160 11 33 30 85 43 115 13 33 20 67 18 86 -3 18 2 45
10 61 9 16 17 60 18 97 3 88 1 89 -122 86 -35 -1 -74 6 -107 19 -29 12 -64 21
-78 21 -35 0 -147 -54 -191 -93 -39 -34 -149 -175 -391 -498 -101 -136 -153
-191 -199 -212 -59 -27 -74 65 -33 214 41 147 60 253 54 296 -5 35 -14 48 -52
77 -52 41 -54 42 -74 19 -33 -38 -152 -397 -168 -503 -20 -139 -197 -819 -246
-945 -76 -198 -103 -284 -119 -378 -24 -133 -79 -313 -134 -437 l-49 -111 36
-23 c21 -13 61 -29 91 -36 51 -12 84 -33 92 -59 2 -6 21 -14 41 -17 33 -6 39
-3 55 24 11 17 31 85 47 151 23 101 40 146 111 288 46 92 150 278 230 413 81
135 164 279 185 321 21 41 45 81 54 88 8 7 41 54 73 105 155 248 233 351 247
327 11 -17 -12 -122 -69 -314 -75 -252 -115 -411 -121 -482 -8 -89 -13 -100
-128 -278 -58 -90 -106 -171 -106 -180 0 -28 57 -57 155 -79 85 -20 102 -21
167 -10 126 22 179 56 260 166 l28 39 -6 -31 c-4 -18 -3 -32 1 -32 20 0 131
112 162 164 20 34 76 120 123 191 143 215 255 395 298 482 28 55 54 91 79 110
61 46 88 79 103 122 8 25 19 41 29 41 9 0 50 48 91 106 80 114 149 194 168
194 20 0 22 -37 7 -136 -35 -227 -32 -236 32 -77 20 51 38 91 41 88 3 -2 -5
-27 -17 -54 -11 -27 -21 -67 -21 -88 -1 -21 -9 -56 -20 -78 -11 -23 -16 -51
-13 -66 3 -16 -2 -37 -11 -52 -10 -15 -15 -35 -11 -48 3 -13 -1 -49 -10 -79
-8 -30 -22 -86 -30 -125 -21 -95 -35 -135 -46 -135 -5 0 -7 12 -4 28 l5 27
-10 -25 c-32 -72 -81 -276 -104 -426 -15 -94 -38 -212 -51 -263 -32 -119 -32
-144 1 -170 15 -12 32 -21 39 -21 6 0 22 -9 35 -20 27 -24 22 -23 111 -8 66
10 71 13 89 47 10 20 33 49 50 65 56 52 62 67 66 188 2 62 9 125 15 141 6 15
9 43 6 62 -3 20 0 49 8 68 16 39 65 253 65 285 0 12 -7 25 -15 28 -25 10 -17
46 20 99 26 35 34 57 30 73 -6 25 16 109 47 179 16 36 19 57 13 100 -6 49 -4
59 20 94 23 32 25 42 15 54 -10 12 -8 21 9 48 26 43 45 136 71 352 29 240 43
300 117 473 59 141 64 158 58 202 -7 49 -24 73 -61 84 -11 3 -27 18 -35 32
-21 40 -93 99 -137 112 -74 22 -90 17 -209 -73z m-455 -622 c-23 -43 -57 -95
-75 -116 -18 -20 -33 -43 -33 -50 0 -17 -48 -63 -56 -54 -4 3 8 30 26 59 36
58 169 238 176 238 2 0 -14 -35 -38 -77z m-335 -451 c-2 -10 -26 -41 -52 -70
-26 -28 -73 -98 -104 -154 -60 -108 -79 -138 -91 -138 -20 0 149 272 209 339
42 46 45 48 38 23z m-845 -1218 c-7 -15 -14 -21 -16 -15 -2 7 2 18 8 26 18 22
21 18 8 -11z"/>
</g>
</svg>
